<?xml version="1.0" encoding="utf-8"?>
<!-- Generator: Adobe Illustrator 19.2.1, SVG Export Plug-In . SVG Version: 6.00 Build 0)  -->
<!DOCTYPE svg PUBLIC "-//W3C//DTD SVG 1.1//EN" "http://www.w3.org/Graphics/SVG/1.1/DTD/svg11.dtd">
<svg version="1.1" id="Layer_1" xmlns="http://www.w3.org/2000/svg" xmlns:xlink="http://www.w3.org/1999/xlink" x="0px" y="0px"
	 width="18px" height="18px" viewBox="0 0 18 18" style="enable-background:new 0 0 18 18;" xml:space="preserve">
<style type="text/css">
	.st0{fill:#152235;}
</style>
<title>facebook</title>
<desc>Created with Sketch.</desc>
<g id="Page-2">
	<g id="Payment-page-Copy-16" transform="translate(-778.000000, -718.000000)">
		<g id="facebook" transform="translate(778.000000, 718.000000)">
			<g id="Facebook">
				<path id="Shape" class="st0" d="M16,0H2C0.9,0,0,0.9,0,2v14c0,1.1,0.9,2,2,2h7v-7H7V8.5h2v-2c0-2.2,1.2-3.7,3.8-3.7l1.8,0v2.6
					h-1.2c-1,0-1.4,0.7-1.4,1.4v1.7h2.6L14,11h-2v7h4c1.1,0,2-0.9,2-2V2C18,0.9,17.1,0,16,0L16,0z"/>
			</g>
		</g>
	</g>
</g>
</svg>
