<?xml version="1.0" encoding="utf-8"?>
<!-- Generator: Adobe Illustrator 19.2.1, SVG Export Plug-In . SVG Version: 6.00 Build 0)  -->
<!DOCTYPE svg PUBLIC "-//W3C//DTD SVG 1.1//EN" "http://www.w3.org/Graphics/SVG/1.1/DTD/svg11.dtd">
<svg version="1.1" id="Layer_1" xmlns="http://www.w3.org/2000/svg" xmlns:xlink="http://www.w3.org/1999/xlink" x="0px" y="0px"
	 width="18px" height="18px" viewBox="0 0 18 18" style="enable-background:new 0 0 18 18;" xml:space="preserve">
<style type="text/css">
	.st0{fill:#152235;}
</style>
<title>linkedin</title>
<desc>Created with Sketch.</desc>
<g id="Page-2">
	<g id="Payment-page-Copy-16" transform="translate(-874.000000, -718.000000)">
		<g id="linkedin" transform="translate(874.000000, 718.000000)">
			<g id="LinkedIn">
				<path id="Shape" class="st0" d="M4,2c0,1.1-0.7,2-2,2C0.8,4,0,3.1,0,2.1C0,1,0.8,0,2,0S4,0.9,4,2L4,2z M0,18h4V5H0V18L0,18z
					 M13.6,5.2c-2.1,0-3.3,1.2-3.8,2H9.7L9.5,5.5H5.9C5.9,6.6,6,7.9,6,9.4V18h4v-7.1c0-0.4,0-0.7,0.1-1c0.3-0.7,0.8-1.6,1.9-1.6
					c1.4,0,2,1.2,2,2.8V18h4v-7.4C18,6.9,16.1,5.2,13.6,5.2L13.6,5.2z"/>
			</g>
		</g>
	</g>
</g>
</svg>
