<svg width="117" height="24" viewBox="0 0 117 24" fill="none" xmlns="http://www.w3.org/2000/svg">
    <g clip-path="url(#clip0)">
        <path fill-rule="evenodd" clip-rule="evenodd" d="M8.87185 0.407726C9.27111 0.306217 9.68392 0.218243 10.0967 0.150571L10.5095 2.66122C10.1779 2.71535 9.8531 2.78303 9.53504 2.871L8.87185 0.407726ZM1.91513 5.46962L4.06034 6.8569C3.87763 7.13436 3.70845 7.42535 3.55957 7.72311L1.28577 6.56591C1.47526 6.18694 1.68504 5.82151 1.91513 5.46962ZM6.53715 1.30777C6.90935 1.11829 7.29508 0.942338 7.68758 0.793458L8.59439 3.18229C8.28986 3.3041 7.99211 3.43268 7.70112 3.58156L6.53715 1.30777ZM5.44763 1.93712L6.83491 4.07557C6.56422 4.25828 6.29353 4.45453 6.03638 4.66432L4.42577 2.68152C4.75737 2.41083 5.09573 2.16721 5.44763 1.93712ZM3.48513 3.52742L5.30551 5.32074C5.07543 5.55083 4.85211 5.79445 4.64909 6.0516L2.65952 4.45453C2.91668 4.12971 3.19414 3.82518 3.48513 3.52742ZM19.5438 2.68828L17.9264 4.65755C17.6693 4.45453 17.4053 4.25828 17.1279 4.07557L18.5084 1.93035C18.8671 2.16721 19.2122 2.4176 19.5438 2.68828ZM16.2955 0.800226C16.6812 0.949105 17.067 1.11829 17.4324 1.30777L16.282 3.58833C15.9842 3.43945 15.6797 3.3041 15.3684 3.18229L16.2955 0.800226ZM21.31 4.44777L19.334 6.06514C19.1174 5.80121 18.8941 5.55083 18.6573 5.31397L20.4709 3.52065C20.7686 3.81165 21.0461 4.12294 21.31 4.44777ZM22.677 6.55238L20.4032 7.71634C20.2543 7.42535 20.0919 7.14113 19.916 6.87044L22.0544 5.47639C22.2777 5.82151 22.4875 6.18018 22.677 6.55238ZM23.5771 8.89384L21.107 9.55026C21.019 9.2322 20.9175 8.92091 20.8025 8.60962L23.1846 7.68927C23.3402 8.08177 23.4688 8.48104 23.5771 8.89384ZM13.8525 0.150571C14.2721 0.211476 14.6781 0.29945 15.0842 0.407726L14.4413 2.87777C14.1232 2.78979 13.7984 2.72212 13.4668 2.66798L13.8525 0.150571ZM11.3554 0.0152263C11.775 -0.00507543 12.1946 -0.00507543 12.6074 0.0152263L12.4788 2.56647C12.154 2.55294 11.8224 2.54617 11.4908 2.56647L11.3554 0.0152263ZM0.3925 15.1062L2.86254 14.4565C2.94375 14.7746 3.04526 15.0859 3.16707 15.3904L0.778232 16.2904C0.629353 15.9047 0.500776 15.5122 0.3925 15.1062ZM23.841 13.8813L21.3168 13.4888C21.3642 13.1572 21.4048 12.8256 21.4183 12.4872L23.9696 12.6226C23.9492 13.0489 23.9086 13.4685 23.841 13.8813ZM23.1846 16.304L20.8025 15.3904C20.9243 15.0791 21.0258 14.7678 21.107 14.4497L23.5771 15.0994C23.4688 15.5122 23.3334 15.9115 23.1846 16.304ZM21.31 10.518L23.8342 10.1187C23.9019 10.5315 23.9425 10.9511 23.9628 11.3706V11.3774L21.4115 11.5128V11.506C21.398 11.1744 21.3574 10.8428 21.31 10.518ZM22.0544 18.5439L19.9092 17.1499C20.0852 16.8724 20.2476 16.5882 20.4032 16.2972L22.6838 17.4544C22.4943 17.8266 22.2845 18.192 22.0544 18.5439ZM20.4641 20.4929L18.664 18.686C18.8941 18.4492 19.1107 18.2123 19.3205 17.9552L21.31 19.5522C21.0461 19.8838 20.7619 20.1951 20.4641 20.4929ZM18.5219 22.0696L17.1414 19.9177C17.4121 19.7417 17.6693 19.5522 17.9196 19.356L19.537 21.332C19.2122 21.5892 18.8738 21.8396 18.5219 22.0696ZM0.778232 7.70957L3.1603 8.61638C3.04526 8.92091 2.94375 9.2322 2.86254 9.55703L0.3925 8.89384C0.500776 8.48781 0.629353 8.09531 0.778232 7.70957ZM2.65276 19.5455L4.63556 17.9349C4.84534 18.1988 5.07543 18.4492 5.30551 18.686L3.49189 20.4793C3.2009 20.1816 2.91668 19.8703 2.65276 19.5455ZM1.29254 17.4544L3.56633 16.2904C3.71521 16.5882 3.88439 16.8724 4.06034 17.1499L1.91513 18.5304C1.68504 18.1853 1.48202 17.8266 1.29254 17.4544ZM0 12.6361L2.55125 12.5075C2.56478 12.8324 2.60539 13.1504 2.65276 13.4685L0.128578 13.8678C0.0676724 13.4617 0.0203017 13.0557 0 12.6361ZM4.42577 21.3185L6.03638 19.3425C6.3003 19.5522 6.56422 19.7485 6.84844 19.9244L5.44763 22.0629C5.08896 21.8328 4.7506 21.5824 4.42577 21.3185ZM0.128578 10.1255L2.65276 10.518C2.60539 10.8428 2.56478 11.1676 2.55125 11.506L0 11.3706C0.0203017 10.9511 0.0676724 10.5315 0.128578 10.1255ZM16.282 23.2065L15.3819 20.8177C15.6865 20.7027 15.991 20.5673 16.2752 20.4184L17.4392 22.6922C17.067 22.8817 16.6812 23.0509 16.282 23.2065ZM7.68758 23.2133C7.29508 23.0644 6.90935 22.8885 6.53715 22.699L7.69435 20.4252C7.98534 20.5741 8.2831 20.7094 8.58762 20.8245L7.68758 23.2133ZM12.6074 23.9848C12.181 24.0051 11.7615 24.0051 11.3419 23.9848L11.484 21.4335C11.8088 21.4538 12.1404 21.4538 12.472 21.4335L12.6074 23.9848ZM13.8593 23.8562L13.46 21.332C13.7849 21.2846 14.1165 21.217 14.4345 21.129L15.0842 23.599C14.6849 23.7006 14.2721 23.7885 13.8593 23.8562ZM10.0967 23.8562C9.68392 23.7953 9.27788 23.7073 8.87861 23.599L9.5418 21.129C9.8531 21.2102 10.1779 21.2779 10.5028 21.332L10.0967 23.8562ZM11.9772 4.88149C10.0147 4.88149 8.33641 5.58529 6.96267 6.97257C5.55508 8.35985 4.87159 10.0381 4.87159 12.0074C4.87159 13.9564 5.55508 15.6346 6.96267 17.0084C8.33641 18.3957 10.0147 19.0995 11.9772 19.0995C13.9262 19.0995 15.6044 18.3957 16.9917 17.0084C18.379 15.6346 19.0693 13.9564 19.0693 12.0074C19.0693 10.0449 18.3858 8.36662 16.9917 6.97257C15.6044 5.58529 13.9262 4.88149 11.9772 4.88149ZM16.5112 16.5279C15.2458 17.7731 13.7299 18.3957 11.9772 18.3957C10.2042 18.3957 8.68831 17.7731 7.45667 16.5279C6.19797 15.2827 5.56861 13.7669 5.56861 12.0074C5.56861 10.2208 6.1912 8.71852 7.45667 7.46658C8.68831 6.20787 10.2042 5.57852 11.9772 5.57852C13.7367 5.57852 15.2525 6.2011 16.5112 7.46658C17.7564 8.71175 18.3655 10.2141 18.3655 12.0074C18.3655 13.7669 17.7564 15.2827 16.5112 16.5279ZM11.9772 6.30261C10.414 6.30261 9.05374 6.84399 7.93715 7.96735C6.82055 9.08395 6.27917 10.4306 6.27917 12.0074C6.27917 13.5706 6.82055 14.9173 7.93715 16.0339C9.05374 17.1505 10.414 17.7122 11.9772 17.7122C13.5607 17.7122 14.8871 17.1573 16.0037 16.0339C17.1203 14.9173 17.682 13.5706 17.682 12.0074C17.682 10.4239 17.1203 9.08395 16.0037 7.96735C14.8803 6.85076 13.554 6.30261 11.9772 6.30261ZM16.9579 12.251C16.9105 13.6383 16.3488 14.7887 15.327 15.7158C14.2916 16.6429 13.087 17.0761 11.7133 16.9948C10.326 16.9136 9.17555 16.3723 8.24844 15.3639C7.33486 14.3218 6.90853 13.1308 6.96943 11.7367C7.05064 10.363 7.59202 9.21252 8.63417 8.28541C9.64249 7.3583 10.8538 6.9455 12.2479 7.00641C13.6081 7.07408 14.7585 7.62899 15.6856 8.65084C16.606 9.67946 17.0391 10.8773 16.9579 12.251ZM19.8069 8.70498C19.3873 7.66283 18.7647 6.76955 18 5.99132C17.2015 5.20632 16.3082 4.60404 15.2864 4.17093C14.2442 3.7243 13.1276 3.50098 11.9772 3.50098C10.8132 3.50098 9.7237 3.7243 8.65448 4.17093C7.64616 4.59727 6.73258 5.20632 5.95435 5.98455C5.16935 6.76955 4.5806 7.66283 4.1475 8.70498C3.68732 9.74037 3.47754 10.8434 3.47754 12.0142C3.47754 13.1646 3.68732 14.2676 4.1475 15.3233C4.5806 16.3317 5.16935 17.2385 5.95435 18.0235C6.73935 18.8085 7.64616 19.4107 8.65448 19.8439C9.7237 20.2905 10.8132 20.5138 11.9772 20.5138C13.1276 20.5138 14.2442 20.2905 15.2864 19.8439C16.3082 19.4107 17.2015 18.8085 18 18.0235C18.7647 17.2385 19.3941 16.3317 19.8069 15.3233C20.2671 14.2676 20.4971 13.1646 20.4971 12.0142C20.4904 10.8434 20.2671 9.74037 19.8069 8.70498ZM19.164 15.0459C18.7647 15.973 18.203 16.8054 17.4857 17.5227C16.7684 18.24 15.9496 18.8017 15.0089 19.201C14.048 19.6002 13.0464 19.81 11.9704 19.81C10.9147 19.81 9.89288 19.6002 8.9387 19.201C7.99805 18.8017 7.17922 18.24 6.44836 17.5227C5.74456 16.8054 5.16935 15.973 4.78362 15.0459C4.36405 14.0714 4.17456 13.0631 4.17456 12.0074C4.17456 10.9382 4.36405 9.92985 4.78362 8.95537C5.16935 8.02826 5.74456 7.19589 6.44836 6.47856C7.18598 5.76123 7.99805 5.19955 8.9387 4.80029C9.89965 4.38748 10.9215 4.19124 11.9704 4.19124C13.0396 4.19124 14.048 4.38072 15.0089 4.80029C15.9496 5.19955 16.7684 5.76123 17.4857 6.47856C18.203 7.19589 18.7647 8.02826 19.164 8.95537C19.5768 9.92985 19.7866 10.9382 19.7866 12.0074C19.7866 13.0631 19.5768 14.0714 19.164 15.0459ZM8.31627 13.9545C8.43808 14.1778 8.57343 14.3876 8.72907 14.5838V9.39338C8.12679 10.1378 7.82227 11.004 7.82227 11.9852C7.82227 12.7229 7.98468 13.386 8.31627 13.9545ZM9.65619 15.4501C9.65957 15.4534 9.66295 15.4551 9.66634 15.4568C9.66972 15.4585 9.6731 15.4602 9.67649 15.4636C9.96071 15.6531 10.272 15.8087 10.5833 15.917V8.07377C10.2585 8.18881 9.94718 8.34446 9.65619 8.54071V15.4501ZM11.5307 7.86398V16.1268H11.5375C11.6796 16.1606 11.8352 16.1606 11.9976 16.1606C12.1533 16.1606 12.3157 16.1606 12.4578 16.1268H12.4646V7.86398C12.3157 7.85045 12.1601 7.83691 11.9976 7.83691C11.8352 7.84368 11.6796 7.85045 11.5307 7.86398ZM13.3985 15.917C13.7233 15.8087 14.0211 15.6463 14.3053 15.4636C14.312 15.4568 14.3188 15.4501 14.3256 15.4501V8.55424C14.0346 8.35122 13.7233 8.19558 13.3985 8.08053V15.917ZM15.2527 9.41368V14.5906C15.4151 14.3944 15.5504 14.1846 15.6655 13.9748C15.9836 13.386 16.1392 12.7229 16.1392 12.0123C16.1392 11.0175 15.8482 10.1581 15.2527 9.41368ZM63.225 6.95885C63.225 6.30243 63.8137 5.73398 64.4702 5.73398C65.1063 5.73398 65.7153 6.3092 65.7153 6.95885C65.7153 7.62881 65.1131 8.20403 64.4702 8.20403C63.8137 8.20403 63.225 7.61528 63.225 6.95885ZM63.3468 9.29355H65.6003V18.1045H63.3468V9.29355ZM28.766 18.1117V6.16758H33.5978C35.8039 6.16758 37.401 8.18421 37.401 10.1399C37.401 12.1769 35.9055 14.1123 33.6858 14.1123H31.0872V18.1185H28.766V18.1117ZM31.0872 12.0686H33.5505C34.4099 12.0686 35.046 11.3107 35.046 10.1332C35.046 8.90831 34.2746 8.19775 33.4489 8.19775H31.0872V12.0686ZM43.9716 11.1059C42.6113 11.1195 41.4542 11.8977 40.9804 12.8925V18.11H38.727V9.29232H40.7977V11.1736C41.4203 9.98258 42.5775 9.17051 43.5249 9.17051C43.7618 9.17051 43.8768 9.17051 43.9783 9.18404L43.9716 11.1059ZM49.2431 9.14414C46.3603 9.14414 44.5805 11.2488 44.5805 13.7526C44.5805 16.1888 46.2723 18.2731 49.2972 18.2731C51.2462 18.2731 52.7621 17.319 53.3982 15.979L51.4966 15.2617C51.2124 15.979 50.3665 16.6355 49.304 16.6355C48.1265 16.6355 47.0844 15.8099 46.9693 14.4294H53.5471C53.5809 14.2399 53.6215 13.9083 53.6215 13.6241C53.6215 11.2352 52.1192 9.14414 49.2431 9.14414ZM49.2025 10.775C50.4341 10.775 51.3951 11.648 51.5101 12.9609H46.9287C47.0302 11.648 47.9912 10.775 49.2025 10.775ZM58.4873 11.1081L53.9262 18.1122H61.8574V16.2918H57.2557L61.8168 9.2877H54.4134V11.1081H58.4873ZM84.6865 18.1163V9.30437H82.4331V18.1163H84.6865ZM83.5598 8.2113C84.1989 8.2113 84.8043 7.63953 84.8043 6.96687C84.8043 6.31102 84.1989 5.73926 83.5598 5.73926C82.904 5.73926 82.3154 6.31102 82.3154 6.96687C82.3154 7.62272 82.904 8.2113 83.5598 8.2113ZM70.043 6.17649L74.7348 18.1163H76.6855L81.3437 6.17649H78.9053L75.7102 15.207L72.4814 6.17649H70.043ZM95.3126 5.84016V18.1163H93.0592V16.7373C92.4875 17.7127 91.5457 18.2844 90.3349 18.2844C87.8965 18.2844 86.1476 16.2664 86.1476 13.7103C86.1476 11.171 87.8125 9.15302 90.0659 9.15302C91.3776 9.15302 92.4538 9.85932 93.0592 10.8515V5.84016H95.3126ZM90.9067 16.3673C91.798 16.3673 92.7733 15.7451 93.0592 14.8875V12.7854C92.6893 11.7764 91.6971 11.0701 90.7722 11.0701C89.4268 11.0701 88.4851 12.365 88.4851 13.7608C88.4851 15.2238 89.5277 16.3673 90.9067 16.3673ZM101.43 18.2844C103.381 18.2844 104.895 17.3259 105.534 15.9806L103.6 15.4424C103.314 16.1655 102.406 16.6364 101.514 16.6364C100.337 16.6364 99.2946 15.8124 99.1769 14.4334H105.988C106.021 14.2485 106.038 13.9626 106.038 13.6767C106.038 11.2887 104.323 9.15302 101.447 9.15302C98.5715 9.15302 96.789 11.2551 96.789 13.7608C96.789 16.1992 98.5883 18.2844 101.43 18.2844ZM99.1433 12.9704C99.2442 11.6587 100.203 10.7842 101.414 10.7842C102.641 10.7842 103.6 11.6587 103.717 12.9704H99.1433ZM116.088 13.7271C116.088 16.1487 114.356 18.2844 111.48 18.2844C108.605 18.2844 106.856 16.1487 106.856 13.7271C106.856 11.2719 108.622 9.15302 111.48 9.15302C114.339 9.15302 116.088 11.2719 116.088 13.7271ZM111.48 11.0701C110.186 11.0701 109.177 12.1968 109.177 13.7271C109.177 15.2743 110.186 16.3673 111.48 16.3673C112.775 16.3673 113.784 15.2574 113.784 13.7103C113.784 12.18 112.775 11.0701 111.48 11.0701Z" fill="#152235"/>
    </g>
    <defs>
        <clipPath id="clip0">
            <rect width="116.25" height="24" fill="white"/>
        </clipPath>
    </defs>
</svg>
