<svg width="24" height="24" viewBox="0 0 24 24" fill="none" xmlns="http://www.w3.org/2000/svg">
<path fill-rule="evenodd" clip-rule="evenodd" d="M18 6.5C18 7.88071 16.8807 9 15.5 9C14.9483 9 14.4383 8.8213 14.0249 8.51861L8.99671 11.8707C8.9989 11.9135 9 11.9566 9 12C9 12.0434 8.9989 12.0865 8.99671 12.1293L14.0249 15.4814C14.4383 15.1787 14.9483 15 15.5 15C16.8807 15 18 16.1193 18 17.5C18 18.8807 16.8807 20 15.5 20C14.1193 20 13 18.8807 13 17.5C13 17.4029 13.0055 17.307 13.0163 17.2127L8.09053 13.9289C7.65834 14.2857 7.1042 14.5 6.5 14.5C5.11929 14.5 4 13.3807 4 12C4 10.6193 5.11929 9.5 6.5 9.5C7.1042 9.5 7.65834 9.71434 8.09053 10.0711L13.0163 6.78727C13.0055 6.693 13 6.59715 13 6.5C13 5.11929 14.1193 4 15.5 4C16.8807 4 18 5.11929 18 6.5Z" fill="black"/>
</svg>
