<?xml version="1.0" encoding="utf-8"?>
<!-- Generator: Adobe Illustrator 19.2.1, SVG Export Plug-In . SVG Version: 6.00 Build 0)  -->
<!DOCTYPE svg PUBLIC "-//W3C//DTD SVG 1.1//EN" "http://www.w3.org/Graphics/SVG/1.1/DTD/svg11.dtd">
<svg version="1.1" id="Layer_1" xmlns="http://www.w3.org/2000/svg" xmlns:xlink="http://www.w3.org/1999/xlink" x="0px" y="0px"
	 width="20px" height="16px" viewBox="0 0 20 16" style="enable-background:new 0 0 20 16;" xml:space="preserve">
<style type="text/css">
	.st0{fill:#152235;}
</style>
<title>twitter</title>
<desc>Created with Sketch.</desc>
<g id="Page-2">
	<g id="Payment-page-Copy-16" transform="translate(-825.000000, -719.000000)">
		<g id="twitter" transform="translate(825.000000, 719.000000)">
			<g id="Twitter">
				<path id="Shape" class="st0" d="M17.3,4.2c0,0.2,0,0.3,0,0.5c0,5-3.8,10.7-10.7,10.7c-2.1,0-4.1-0.6-5.8-1.7
					c0.3,0,0.6,0.1,0.9,0.1c1.8,0,3.4-0.6,4.7-1.6c-1.7,0-3-1.1-3.5-2.6c0.2,0,0.5,0.1,0.7,0.1c0.3,0,0.7,0,1-0.1
					c-1.7-0.3-3-1.9-3-3.7v0C2,6.1,2.6,6.2,3.2,6.3c-1-0.7-1.7-1.8-1.7-3.1c0-0.7,0.2-1.3,0.5-1.9C3.9,3.5,6.7,5,9.9,5.2
					C9.8,4.9,9.8,4.6,9.8,4.3c0-2.1,1.7-3.8,3.8-3.8c1.1,0,2.1,0.5,2.8,1.2c0.9-0.2,1.7-0.5,2.4-0.9c-0.3,0.9-0.9,1.6-1.7,2.1
					c0.8-0.1,1.5-0.3,2.2-0.6C18.7,3.1,18.1,3.7,17.3,4.2L17.3,4.2z"/>
			</g>
		</g>
	</g>
</g>
</svg>
